# This file uses centimeters as units for non-parametric coordinates.

mtllib 1st_Street.mtl
g default
v -34.995464 1.437242 -19.941128
v -21.594803 1.440436 -19.941132
v 14.587125 1.724594 -20.121504
v 17.294744 1.724594 -20.121504
v 2.977596 1.440436 -20.278311
v 14.587125 1.437242 -20.278311
v -34.995464 1.724594 -19.941128
v -38.520874 1.724594 -19.941128
v 0.838938 1.440436 -20.262632
v -17.813799 1.440435 -19.981865
v -34.995464 1.437242 -16.440889
v -21.594803 1.440436 -16.440889
v 14.587125 1.724594 -16.440891
v 17.294744 1.724594 -16.440891
v 2.977596 1.440436 -16.440891
v 14.587125 1.437242 -16.440891
v -34.995464 1.724594 -16.440889
v -38.520874 1.724594 -16.440889
v 0.838938 1.440436 -16.440893
v -17.813799 1.440436 -16.440889
v -98.566010 1.724594 -19.941128
v -98.566010 1.724594 -16.440889
v 78.084465 1.724594 -20.121504
v 78.084465 1.724594 -16.440891
v 17.294744 1.447068 -16.440891
v -38.520874 1.447068 -16.440889
v -98.566010 1.447068 -16.440889
v 78.084465 1.447068 -16.440891
v -34.995464 1.437242 -2.703160
v -21.594803 1.440436 -2.703160
v 2.977596 1.440436 -2.703162
v 14.587125 1.437242 -2.703162
v 0.838938 1.440436 -2.703164
v -17.813799 1.440436 -2.703160
v 17.294744 1.447068 -2.703162
v -38.520874 1.447068 -2.703160
v -98.566010 1.447068 -2.703160
v 78.084465 1.447068 -2.703162
v -34.995464 1.849890 -2.703160
v -21.594803 1.853084 -2.703160
v 2.977596 1.853084 -2.703162
v 14.587125 1.849890 -2.703162
v 0.838938 1.853085 -2.703164
v -17.813799 1.853085 -2.703160
v 17.294744 1.859717 -2.703162
v -38.520874 1.859717 -2.703160
v -98.566010 1.859717 -2.703160
v 78.084465 1.859717 -2.703162
v -34.995464 1.849890 1.336234
v -21.594803 1.853084 1.336234
v 2.977596 1.853084 1.336232
v 14.587125 1.849890 1.336232
v 0.838938 1.853085 1.336230
v -17.813799 1.853085 1.336234
v 17.294744 1.859717 1.336232
v -38.520874 1.859717 1.336234
v -98.566010 1.859717 1.336234
v 78.084465 1.859717 1.336232
v -69.818146 1.724594 -19.941128
v -69.818146 1.724594 -16.440889
v -69.818146 1.447068 -16.440889
v -69.818146 1.447068 -2.703160
v -69.818146 1.859717 -2.703160
v -69.818146 1.859717 1.336234
v -38.520874 1.859717 58.424404
v -69.818146 1.859717 58.424404
vt 0.593745 0.850789
vt 0.593745 0.705731
vt 0.631634 0.705731
vt 0.631634 0.850789
vt 0.345776 0.646084
vt 0.370633 0.645895
vt 0.370633 0.678716
vt 0.345788 0.681187
vt 0.808431 0.342877
vt 0.808431 0.224589
vt 0.847530 0.224589
vt 0.847530 0.342877
vt 0.373327 0.644820
vt 0.372601 0.680283
vt 0.000691 0.822654
vt 0.003149 0.821660
vt 0.009390 0.849528
vt 0.007859 0.851547
vt 0.037550 0.816654
vt 0.038474 0.848942
vt 0.808591 0.202798
vt 0.847530 0.202798
vt 0.811451 0.012748
vt 0.631634 0.891717
vt 0.323913 0.817044
vt 0.323272 0.848942
vt 0.565468 0.942710
vt 0.565468 0.976248
vt 0.011552 0.976248
vt 0.011552 0.942710
vt 0.346548 0.683776
vt 0.038344 0.851473
vt 0.323234 0.851475
vt 0.565468 0.978777
vt 0.011552 0.978777
vt 0.780340 0.705731
vt 0.780340 0.850789
vt 0.987502 0.224589
vt 0.987502 0.342877
vt 0.987502 0.202798
vt 0.780340 0.891717
vt 0.847530 0.370465
vt 0.987502 0.370465
vt 0.631634 0.667569
vt 0.780340 0.667569
vt 0.631634 0.328786
vt 0.780340 0.328786
vt 0.847530 0.989843
vt 0.987502 0.989843
vt 0.379303 0.759857
vt 0.501416 0.759856
vt 0.501418 0.763617
vt 0.379303 0.763617
vt 0.049615 0.759871
vt 0.155400 0.759872
vt 0.155401 0.763632
vt 0.049616 0.763631
vt 0.174888 0.759871
vt 0.174888 0.763631
vt 0.344851 0.759859
vt 0.344851 0.763619
vt 0.562403 0.883766
vt 0.562400 0.887526
vt 0.533540 0.759887
vt 0.533546 0.763647
vt 0.086307 0.036787
vt 0.371488 0.036787
vt 0.371488 0.040547
vt 0.086307 0.040547
vt 0.008494 0.883767
vt 0.008494 0.887527
vt 0.501404 0.800426
vt 0.379307 0.800422
vt 0.155402 0.800439
vt 0.049615 0.800439
vt 0.174890 0.800438
vt 0.344854 0.800426
vt 0.562413 0.924332
vt 0.533523 0.800453
vt 0.371488 0.077354
vt 0.086307 0.077354
vt 0.008486 0.924334
vt 0.586180 0.821879
vt 0.585598 0.853816
vt 0.585553 0.856348
vt 0.631634 0.017600
vt 0.780340 0.017600
vt 0.058192 0.639035
vt 0.058192 0.635275
vt 0.320142 0.635275
vt 0.320142 0.639035
vt 0.058192 0.675842
vt 0.320142 0.675842
vt 0.371488 0.597541
vt 0.086307 0.597541
vt 0.587091 0.924307
vt 0.587067 0.887497
vt 0.587075 0.883737
vt 0.987502 0.012748
vt 0.847530 0.012748
vt 0.593304 0.891717
vn -0.000238 1.000000 0.000000
vn -0.000238 1.000000 0.000000
vn -0.000238 1.000000 0.000000
vn -0.000238 1.000000 0.000000
vn 0.000000 1.000000 0.000000
vn 0.000000 1.000000 0.000000
vn 0.000000 1.000000 0.000000
vn 0.000000 1.000000 0.000000
vn 0.000275 1.000000 0.000000
vn 0.000275 1.000000 0.000000
vn 0.000275 1.000000 0.000000
vn 0.000275 1.000000 0.000000
vn -1.000000 0.000000 0.000000
vn -1.000000 0.000000 0.000000
vn -1.000000 0.000000 0.000000
vn -1.000000 0.000000 0.000000
vn 1.000000 0.000000 0.000000
vn 1.000000 0.000000 0.000000
vn 1.000000 0.000000 0.000000
vn 1.000000 0.000000 0.000000
vn 0.000000 1.000000 0.000000
vn 0.000000 1.000000 0.000000
vn 0.000000 1.000000 0.000000
vn 0.000000 1.000000 0.000000
vn 0.000000 1.000000 0.000000
vn 0.000000 1.000000 0.000000
vn 0.000000 1.000000 0.000000
vn 0.000000 1.000000 0.000000
vn 0.000000 1.000000 0.000000
vn 0.000000 1.000000 0.000000
vn 0.000000 1.000000 0.000000
vn 0.000000 1.000000 0.000000
vn -0.000000 1.000000 -0.000000
vn -0.000000 1.000000 -0.000000
vn -0.000000 1.000000 -0.000000
vn -0.000000 1.000000 -0.000000
vn 0.000000 1.000000 0.000000
vn 0.000000 1.000000 0.000000
vn 0.000000 1.000000 0.000000
vn 0.000000 1.000000 0.000000
vn 0.000000 1.000000 0.000000
vn 0.000000 1.000000 0.000000
vn 0.000000 1.000000 0.000000
vn 0.000000 1.000000 0.000000
vn 0.000000 0.000000 1.000000
vn 0.000000 0.000000 1.000000
vn 0.000000 0.000000 1.000000
vn 0.000000 0.000000 1.000000
vn 0.000000 0.000000 1.000000
vn 0.000000 0.000000 1.000000
vn 0.000000 0.000000 1.000000
vn 0.000000 0.000000 1.000000
vn 0.000000 0.000000 1.000000
vn 0.000000 0.000000 1.000000
vn 0.000000 0.000000 1.000000
vn 0.000000 0.000000 1.000000
vn 0.000000 0.000000 1.000000
vn 0.000000 0.000000 1.000000
vn 0.000000 0.000000 1.000000
vn 0.000000 0.000000 1.000000
vn -0.000238 1.000000 0.000000
vn -0.000238 1.000000 0.000000
vn -0.000238 1.000000 0.000000
vn -0.000238 1.000000 0.000000
vn 0.000275 1.000000 0.000000
vn 0.000275 1.000000 0.000000
vn 0.000275 1.000000 0.000000
vn 0.000275 1.000000 0.000000
vn 0.000000 1.000000 0.000000
vn 0.000000 1.000000 0.000000
vn 0.000000 1.000000 0.000000
vn 0.000000 1.000000 0.000000
vn 0.000000 1.000000 0.000000
vn 0.000000 1.000000 0.000000
vn 0.000000 1.000000 0.000000
vn 0.000000 1.000000 0.000000
vn 0.000000 1.000000 0.000000
vn 0.000000 1.000000 0.000000
vn 0.000000 1.000000 0.000000
vn 0.000000 1.000000 0.000000
vn -0.003629 0.999994 0.000000
vn -0.003629 0.999994 0.000000
vn -0.003629 0.999994 0.000000
vn -0.003629 0.999994 0.000000
vn 0.002787 0.999996 0.000000
vn 0.002787 0.999996 0.000000
vn 0.002787 0.999996 0.000000
vn 0.002787 0.999996 0.000000
vn 0.000000 1.000000 0.000000
vn 0.000000 1.000000 0.000000
vn 0.000000 1.000000 0.000000
vn 0.000000 1.000000 0.000000
vn 0.000000 1.000000 0.000000
vn 0.000000 1.000000 0.000000
vn 0.000000 1.000000 0.000000
vn 0.000000 1.000000 0.000000
vn 0.000000 0.000000 -1.000000
vn 0.000000 0.000000 -1.000000
vn 0.000000 0.000000 -1.000000
vn 0.000000 0.000000 -1.000000
vn 0.000000 0.000000 -1.000000
vn 0.000000 0.000000 -1.000000
vn 0.000000 0.000000 -1.000000
vn 0.000000 0.000000 -1.000000
vn 0.000001 0.000000 -1.000000
vn 0.000001 0.000000 -1.000000
vn 0.000001 0.000000 -1.000000
vn 0.000001 0.000000 -1.000000
vn 0.000000 0.000000 -1.000000
vn 0.000000 0.000000 -1.000000
vn 0.000000 0.000000 -1.000000
vn 0.000000 0.000000 -1.000000
vn -0.000000 0.000000 -1.000000
vn -0.000000 0.000000 -1.000000
vn -0.000000 0.000000 -1.000000
vn -0.000000 0.000000 -1.000000
vn 0.000000 0.000000 -1.000000
vn 0.000000 0.000000 -1.000000
vn 0.000000 0.000000 -1.000000
vn 0.000000 0.000000 -1.000000
vn 0.000000 0.000000 -1.000000
vn 0.000000 0.000000 -1.000000
vn 0.000000 0.000000 -1.000000
vn 0.000000 0.000000 -1.000000
vn 0.000000 0.000000 -1.000000
vn 0.000000 0.000000 -1.000000
vn 0.000000 0.000000 -1.000000
vn 0.000000 0.000000 -1.000000
vn 0.000000 0.000000 -1.000000
vn 0.000000 0.000000 -1.000000
vn 0.000000 0.000000 -1.000000
vn 0.000000 0.000000 -1.000000
vn -0.000238 1.000000 0.000000
vn -0.000238 1.000000 0.000000
vn -0.000238 1.000000 0.000000
vn -0.000238 1.000000 0.000000
vn 0.000275 1.000000 0.000000
vn 0.000275 1.000000 0.000000
vn 0.000275 1.000000 0.000000
vn 0.000275 1.000000 0.000000
vn 0.000000 1.000000 0.000000
vn 0.000000 1.000000 0.000000
vn 0.000000 1.000000 0.000000
vn 0.000000 1.000000 0.000000
vn 0.000000 1.000000 0.000000
vn 0.000000 1.000000 0.000000
vn 0.000000 1.000000 0.000000
vn 0.000000 1.000000 0.000000
vn 0.000000 1.000000 0.000000
vn 0.000000 1.000000 0.000000
vn 0.000000 1.000000 0.000000
vn 0.000000 1.000000 0.000000
vn -0.003629 0.999994 0.000000
vn -0.003629 0.999994 0.000000
vn -0.003629 0.999994 0.000000
vn -0.003629 0.999994 0.000000
vn 0.002787 0.999996 0.000000
vn 0.002787 0.999996 0.000000
vn 0.002787 0.999996 0.000000
vn 0.002787 0.999996 0.000000
vn 0.000000 1.000000 0.000000
vn 0.000000 1.000000 0.000000
vn 0.000000 1.000000 0.000000
vn 0.000000 1.000000 0.000000
vn 0.000000 1.000000 0.000000
vn 0.000000 1.000000 0.000000
vn 0.000000 1.000000 0.000000
vn 0.000000 1.000000 0.000000
vn 0.000000 1.000000 0.000000
vn 0.000000 1.000000 0.000000
vn 0.000000 1.000000 0.000000
vn 0.000000 1.000000 0.000000
vn 0.000000 0.000000 1.000000
vn 0.000000 0.000000 1.000000
vn 0.000000 0.000000 1.000000
vn 0.000000 0.000000 1.000000
vn 0.000000 1.000000 0.000000
vn 0.000000 1.000000 0.000000
vn 0.000000 1.000000 0.000000
vn 0.000000 1.000000 0.000000
vn 0.000000 0.000000 -1.000000
vn 0.000000 0.000000 -1.000000
vn 0.000000 0.000000 -1.000000
vn 0.000000 0.000000 -1.000000
vn 0.000000 1.000000 0.000000
vn 0.000000 1.000000 0.000000
vn 0.000000 1.000000 0.000000
vn 0.000000 1.000000 0.000000
vn 0.000000 1.000000 0.000000
vn 0.000000 1.000000 0.000000
vn 0.000000 1.000000 0.000000
vn 0.000000 1.000000 0.000000
s off
g BuildingA_70:BuildingA_70:polySurface22 Street1:Street1
usemtl Street1:lambert6SG
f 2/1/1 1/2/2 11/3/3 12/4/4
usemtl Street1:lambert5SG
f 4/5/5 3/6/6 13/7/7 14/8/8
usemtl Street1:lambert6SG
f 6/9/9 5/10/10 15/11/11 16/12/12
usemtl Street1:lambert5SG
f 3/6/13 6/13/14 16/14/15 13/7/16
f 1/15/17 7/16/18 17/17/19 11/18/20
f 7/16/21 8/19/22 18/20/23 17/17/24
usemtl Street1:lambert6SG
f 5/10/25 9/21/26 19/22/27 15/11/28
f 10/101/29 2/1/30 12/4/31 20/24/32
f 9/21/33 10/23/34 20/100/35 19/22/36
usemtl Street1:lambert5SG
f 18/20/37 8/19/38 59/25/39 60/26/40
f 4/27/41 14/28/42 24/29/43 23/30/44
f 14/8/45 13/7/46 16/14/47 25/31/48
f 17/17/49 18/20/50 26/32/51 11/18/52
f 18/20/53 60/26/54 61/33/55 26/32/56
f 24/29/57 14/28/58 25/34/59 28/35/60
usemtl Street1:lambert6SG
f 12/4/61 11/3/62 29/36/63 30/37/64
f 16/12/65 15/11/66 31/38/67 32/39/68
f 15/11/69 19/22/70 33/40/71 31/38/72
f 20/24/73 12/4/74 30/37/75 34/41/76
f 19/22/77 20/100/78 34/99/79 33/40/80
f 25/42/81 16/12/82 32/39/83 35/43/84
f 11/3/85 26/44/86 36/45/87 29/36/88
f 26/44/89 61/46/90 62/47/91 36/45/92
f 28/48/93 25/42/94 35/43/95 38/49/96
usemtl Street1:lambert5SG
f 30/50/97 29/51/98 39/52/99 40/53/100
f 32/54/101 31/55/102 41/56/103 42/57/104
f 31/55/105 33/58/106 43/59/107 41/56/108
f 34/60/109 30/50/110 40/53/111 44/61/112
f 33/58/113 34/60/114 44/61/115 43/59/116
f 35/62/117 32/98/118 42/97/119 45/63/120
f 29/51/121 36/64/122 46/65/123 39/52/124
f 36/66/125 62/67/126 63/68/127 46/69/128
f 38/70/129 35/62/130 45/63/131 48/71/132
f 40/53/133 39/52/134 49/72/135 50/73/136
f 42/57/137 41/56/138 51/74/139 52/75/140
f 41/56/141 43/59/142 53/76/143 51/74/144
f 44/61/145 40/53/146 50/73/147 54/77/148
f 43/59/149 44/61/150 54/77/151 53/76/152
f 45/63/153 42/97/154 52/96/155 55/78/156
f 39/52/157 46/65/158 56/79/159 49/72/160
f 46/69/161 63/68/162 64/80/163 56/81/164
f 48/71/165 45/63/166 55/78/167 58/82/168
f 60/26/169 59/25/170 21/83/171 22/84/172
f 61/33/173 60/26/174 22/84/175 27/85/176
usemtl Street1:lambert6SG
f 62/47/177 61/46/178 27/86/179 37/87/180
usemtl Street1:lambert5SG
f 63/88/181 62/89/182 37/90/183 47/91/184
f 64/92/185 63/88/186 47/91/187 57/93/188
f 56/81/189 64/80/190 66/94/191 65/95/192
g default
v -34.995464 1.437242 -19.941128
v -21.594803 1.440436 -19.941132
v 14.587125 1.724594 -20.121504
v 17.294744 1.724594 -20.121504
v 2.977596 1.440436 -20.278311
v 14.587125 1.437242 -20.278311
v -34.995464 1.724594 -19.941128
v -38.520874 1.724594 -19.941128
v 0.838938 1.440436 -20.262632
v -17.813799 1.440435 -19.981865
v -34.995464 1.437242 -16.440889
v -21.594803 1.440436 -16.440889
v 14.587125 1.724594 -16.440891
v 17.294744 1.724594 -16.440891
v 2.977596 1.440436 -16.440891
v 14.587125 1.437242 -16.440891
v -34.995464 1.724594 -16.440889
v -38.520874 1.724594 -16.440889
v 0.838938 1.440436 -16.440893
v -17.813799 1.440436 -16.440889
v -98.566010 1.724594 -19.941128
v -98.566010 1.724594 -16.440889
v 78.084465 1.724594 -20.121504
v 78.084465 1.724594 -16.440891
v 17.294744 1.447068 -16.440891
v -38.520874 1.447068 -16.440889
v -98.566010 1.447068 -16.440889
v 78.084465 1.447068 -16.440891
v -34.995464 1.437242 -2.703160
v -21.594803 1.440436 -2.703160
v 2.977596 1.440436 -2.703162
v 14.587125 1.437242 -2.703162
v 0.838938 1.440436 -2.703164
v -17.813799 1.440436 -2.703160
v 17.294744 1.447068 -2.703162
v -38.520874 1.447068 -2.703160
v -98.566010 1.447068 -2.703160
v 78.084465 1.447068 -2.703162
v -34.995464 1.849890 -2.703160
v -21.594803 1.853084 -2.703160
v 2.977596 1.853084 -2.703162
v 14.587125 1.849890 -2.703162
v 0.838938 1.853085 -2.703164
v -17.813799 1.853085 -2.703160
v 17.294744 1.859717 -2.703162
v -38.520874 1.859717 -2.703160
v -98.566010 1.859717 -2.703160
v 78.084465 1.859717 -2.703162
v -34.995464 1.849890 1.336234
v -21.594803 1.853084 1.336234
v 2.977596 1.853084 1.336232
v 14.587125 1.849890 1.336232
v 0.838938 1.853085 1.336230
v -17.813799 1.853085 1.336234
v 17.294744 1.859717 1.336232
v -38.520874 1.859717 1.336234
v -98.566010 1.859717 1.336234
v 78.084465 1.859717 1.336232
v -69.818146 1.724594 -19.941128
v -69.818146 1.724594 -16.440889
v -69.818146 1.447068 -16.440889
v -69.818146 1.447068 -2.703160
v -69.818146 1.859717 -2.703160
v -69.818146 1.859717 1.336234
v -38.520874 1.859717 58.424404
v -69.818146 1.859717 58.424404
vt 0.593745 0.850789
vt 0.593745 0.705731
vt 0.631634 0.705731
vt 0.631634 0.850789
vt 0.345776 0.646084
vt 0.370633 0.645895
vt 0.370633 0.678716
vt 0.345788 0.681187
vt 0.808431 0.342877
vt 0.808431 0.224589
vt 0.847530 0.224589
vt 0.847530 0.342877
vt 0.373327 0.644820
vt 0.372601 0.680283
vt 0.000691 0.822654
vt 0.003149 0.821660
vt 0.009390 0.849528
vt 0.007859 0.851547
vt 0.037550 0.816654
vt 0.038474 0.848942
vt 0.808591 0.202798
vt 0.847530 0.202798
vt 0.811451 0.012748
vt 0.631634 0.891717
vt 0.323913 0.817044
vt 0.323272 0.848942
vt 0.565468 0.942710
vt 0.565468 0.976248
vt 0.011552 0.976248
vt 0.011552 0.942710
vt 0.346548 0.683776
vt 0.038344 0.851473
vt 0.323234 0.851475
vt 0.565468 0.978777
vt 0.011552 0.978777
vt 0.780340 0.705731
vt 0.780340 0.850789
vt 0.987502 0.224589
vt 0.987502 0.342877
vt 0.987502 0.202798
vt 0.780340 0.891717
vt 0.847530 0.370465
vt 0.987502 0.370465
vt 0.631634 0.667569
vt 0.780340 0.667569
vt 0.631634 0.328786
vt 0.780340 0.328786
vt 0.847530 0.989843
vt 0.987502 0.989843
vt 0.379303 0.759857
vt 0.501416 0.759856
vt 0.501418 0.763617
vt 0.379303 0.763617
vt 0.049615 0.759871
vt 0.155400 0.759872
vt 0.155401 0.763632
vt 0.049616 0.763631
vt 0.174888 0.759871
vt 0.174888 0.763631
vt 0.344851 0.759859
vt 0.344851 0.763619
vt 0.562403 0.883766
vt 0.562400 0.887526
vt 0.533540 0.759887
vt 0.533546 0.763647
vt 0.086307 0.036787
vt 0.371488 0.036787
vt 0.371488 0.040547
vt 0.086307 0.040547
vt 0.008494 0.883767
vt 0.008494 0.887527
vt 0.501404 0.800426
vt 0.379307 0.800422
vt 0.155402 0.800439
vt 0.049615 0.800439
vt 0.174890 0.800438
vt 0.344854 0.800426
vt 0.562413 0.924332
vt 0.533523 0.800453
vt 0.371488 0.077354
vt 0.086307 0.077354
vt 0.008486 0.924334
vt 0.586180 0.821879
vt 0.585598 0.853816
vt 0.585553 0.856348
vt 0.631634 0.017600
vt 0.780340 0.017600
vt 0.058192 0.639035
vt 0.058192 0.635275
vt 0.320142 0.635275
vt 0.320142 0.639035
vt 0.058192 0.675842
vt 0.320142 0.675842
vt 0.371488 0.597541
vt 0.086307 0.597541
vt 0.587091 0.924307
vt 0.587067 0.887497
vt 0.587075 0.883737
vt 0.987502 0.012748
vt 0.847530 0.012748
vt 0.593304 0.891717
vn -0.000238 1.000000 0.000000
vn -0.000238 1.000000 0.000000
vn -0.000238 1.000000 0.000000
vn -0.000238 1.000000 0.000000
vn 0.000000 1.000000 0.000000
vn 0.000000 1.000000 0.000000
vn 0.000000 1.000000 0.000000
vn 0.000000 1.000000 0.000000
vn 0.000275 1.000000 0.000000
vn 0.000275 1.000000 0.000000
vn 0.000275 1.000000 0.000000
vn 0.000275 1.000000 0.000000
vn -1.000000 0.000000 0.000000
vn -1.000000 0.000000 0.000000
vn -1.000000 0.000000 0.000000
vn -1.000000 0.000000 0.000000
vn 1.000000 0.000000 0.000000
vn 1.000000 0.000000 0.000000
vn 1.000000 0.000000 0.000000
vn 1.000000 0.000000 0.000000
vn 0.000000 1.000000 0.000000
vn 0.000000 1.000000 0.000000
vn 0.000000 1.000000 0.000000
vn 0.000000 1.000000 0.000000
vn 0.000000 1.000000 0.000000
vn 0.000000 1.000000 0.000000
vn 0.000000 1.000000 0.000000
vn 0.000000 1.000000 0.000000
vn 0.000000 1.000000 0.000000
vn 0.000000 1.000000 0.000000
vn 0.000000 1.000000 0.000000
vn 0.000000 1.000000 0.000000
vn -0.000000 1.000000 -0.000000
vn -0.000000 1.000000 -0.000000
vn -0.000000 1.000000 -0.000000
vn -0.000000 1.000000 -0.000000
vn 0.000000 1.000000 0.000000
vn 0.000000 1.000000 0.000000
vn 0.000000 1.000000 0.000000
vn 0.000000 1.000000 0.000000
vn 0.000000 1.000000 0.000000
vn 0.000000 1.000000 0.000000
vn 0.000000 1.000000 0.000000
vn 0.000000 1.000000 0.000000
vn 0.000000 0.000000 1.000000
vn 0.000000 0.000000 1.000000
vn 0.000000 0.000000 1.000000
vn 0.000000 0.000000 1.000000
vn 0.000000 0.000000 1.000000
vn 0.000000 0.000000 1.000000
vn 0.000000 0.000000 1.000000
vn 0.000000 0.000000 1.000000
vn 0.000000 0.000000 1.000000
vn 0.000000 0.000000 1.000000
vn 0.000000 0.000000 1.000000
vn 0.000000 0.000000 1.000000
vn 0.000000 0.000000 1.000000
vn 0.000000 0.000000 1.000000
vn 0.000000 0.000000 1.000000
vn 0.000000 0.000000 1.000000
vn -0.000238 1.000000 0.000000
vn -0.000238 1.000000 0.000000
vn -0.000238 1.000000 0.000000
vn -0.000238 1.000000 0.000000
vn 0.000275 1.000000 0.000000
vn 0.000275 1.000000 0.000000
vn 0.000275 1.000000 0.000000
vn 0.000275 1.000000 0.000000
vn 0.000000 1.000000 0.000000
vn 0.000000 1.000000 0.000000
vn 0.000000 1.000000 0.000000
vn 0.000000 1.000000 0.000000
vn 0.000000 1.000000 0.000000
vn 0.000000 1.000000 0.000000
vn 0.000000 1.000000 0.000000
vn 0.000000 1.000000 0.000000
vn 0.000000 1.000000 0.000000
vn 0.000000 1.000000 0.000000
vn 0.000000 1.000000 0.000000
vn 0.000000 1.000000 0.000000
vn -0.003629 0.999994 0.000000
vn -0.003629 0.999994 0.000000
vn -0.003629 0.999994 0.000000
vn -0.003629 0.999994 0.000000
vn 0.002787 0.999996 0.000000
vn 0.002787 0.999996 0.000000
vn 0.002787 0.999996 0.000000
vn 0.002787 0.999996 0.000000
vn 0.000000 1.000000 0.000000
vn 0.000000 1.000000 0.000000
vn 0.000000 1.000000 0.000000
vn 0.000000 1.000000 0.000000
vn 0.000000 1.000000 0.000000
vn 0.000000 1.000000 0.000000
vn 0.000000 1.000000 0.000000
vn 0.000000 1.000000 0.000000
vn 0.000000 0.000000 -1.000000
vn 0.000000 0.000000 -1.000000
vn 0.000000 0.000000 -1.000000
vn 0.000000 0.000000 -1.000000
vn 0.000000 0.000000 -1.000000
vn 0.000000 0.000000 -1.000000
vn 0.000000 0.000000 -1.000000
vn 0.000000 0.000000 -1.000000
vn 0.000001 0.000000 -1.000000
vn 0.000001 0.000000 -1.000000
vn 0.000001 0.000000 -1.000000
vn 0.000001 0.000000 -1.000000
vn 0.000000 0.000000 -1.000000
vn 0.000000 0.000000 -1.000000
vn 0.000000 0.000000 -1.000000
vn 0.000000 0.000000 -1.000000
vn -0.000000 0.000000 -1.000000
vn -0.000000 0.000000 -1.000000
vn -0.000000 0.000000 -1.000000
vn -0.000000 0.000000 -1.000000
vn 0.000000 0.000000 -1.000000
vn 0.000000 0.000000 -1.000000
vn 0.000000 0.000000 -1.000000
vn 0.000000 0.000000 -1.000000
vn 0.000000 0.000000 -1.000000
vn 0.000000 0.000000 -1.000000
vn 0.000000 0.000000 -1.000000
vn 0.000000 0.000000 -1.000000
vn 0.000000 0.000000 -1.000000
vn 0.000000 0.000000 -1.000000
vn 0.000000 0.000000 -1.000000
vn 0.000000 0.000000 -1.000000
vn 0.000000 0.000000 -1.000000
vn 0.000000 0.000000 -1.000000
vn 0.000000 0.000000 -1.000000
vn 0.000000 0.000000 -1.000000
vn -0.000238 1.000000 0.000000
vn -0.000238 1.000000 0.000000
vn -0.000238 1.000000 0.000000
vn -0.000238 1.000000 0.000000
vn 0.000275 1.000000 0.000000
vn 0.000275 1.000000 0.000000
vn 0.000275 1.000000 0.000000
vn 0.000275 1.000000 0.000000
vn 0.000000 1.000000 0.000000
vn 0.000000 1.000000 0.000000
vn 0.000000 1.000000 0.000000
vn 0.000000 1.000000 0.000000
vn 0.000000 1.000000 0.000000
vn 0.000000 1.000000 0.000000
vn 0.000000 1.000000 0.000000
vn 0.000000 1.000000 0.000000
vn 0.000000 1.000000 0.000000
vn 0.000000 1.000000 0.000000
vn 0.000000 1.000000 0.000000
vn 0.000000 1.000000 0.000000
vn -0.003629 0.999994 0.000000
vn -0.003629 0.999994 0.000000
vn -0.003629 0.999994 0.000000
vn -0.003629 0.999994 0.000000
vn 0.002787 0.999996 0.000000
vn 0.002787 0.999996 0.000000
vn 0.002787 0.999996 0.000000
vn 0.002787 0.999996 0.000000
vn 0.000000 1.000000 0.000000
vn 0.000000 1.000000 0.000000
vn 0.000000 1.000000 0.000000
vn 0.000000 1.000000 0.000000
vn 0.000000 1.000000 0.000000
vn 0.000000 1.000000 0.000000
vn 0.000000 1.000000 0.000000
vn 0.000000 1.000000 0.000000
vn 0.000000 1.000000 0.000000
vn 0.000000 1.000000 0.000000
vn 0.000000 1.000000 0.000000
vn 0.000000 1.000000 0.000000
vn 0.000000 0.000000 1.000000
vn 0.000000 0.000000 1.000000
vn 0.000000 0.000000 1.000000
vn 0.000000 0.000000 1.000000
vn 0.000000 1.000000 0.000000
vn 0.000000 1.000000 0.000000
vn 0.000000 1.000000 0.000000
vn 0.000000 1.000000 0.000000
vn 0.000000 0.000000 -1.000000
vn 0.000000 0.000000 -1.000000
vn 0.000000 0.000000 -1.000000
vn 0.000000 0.000000 -1.000000
vn 0.000000 1.000000 0.000000
vn 0.000000 1.000000 0.000000
vn 0.000000 1.000000 0.000000
vn 0.000000 1.000000 0.000000
vn 0.000000 1.000000 0.000000
vn 0.000000 1.000000 0.000000
vn 0.000000 1.000000 0.000000
vn 0.000000 1.000000 0.000000
s off
g BuildingA_70:BuildingA_70:polySurface22 Street1:Street1
f 68/102/193 67/103/194 77/104/195 78/105/196
f 70/106/197 69/107/198 79/108/199 80/109/200
f 72/110/201 71/111/202 81/112/203 82/113/204
f 69/107/205 72/114/206 82/115/207 79/108/208
f 67/116/209 73/117/210 83/118/211 77/119/212
f 73/117/213 74/120/214 84/121/215 83/118/216
f 71/111/217 75/122/218 85/123/219 81/112/220
f 76/202/221 68/102/222 78/105/223 86/125/224
f 75/122/225 76/124/226 86/201/227 85/123/228
f 84/121/229 74/120/230 125/126/231 126/127/232
f 70/128/233 80/129/234 90/130/235 89/131/236
f 80/109/237 79/108/238 82/115/239 91/132/240
f 83/118/241 84/121/242 92/133/243 77/119/244
f 84/121/245 126/127/246 127/134/247 92/133/248
f 90/130/249 80/129/250 91/135/251 94/136/252
f 78/105/253 77/104/254 95/137/255 96/138/256
f 82/113/257 81/112/258 97/139/259 98/140/260
f 81/112/261 85/123/262 99/141/263 97/139/264
f 86/125/265 78/105/266 96/138/267 100/142/268
f 85/123/269 86/201/270 100/200/271 99/141/272
f 91/143/273 82/113/274 98/140/275 101/144/276
f 77/104/277 92/145/278 102/146/279 95/137/280
f 92/145/281 127/147/282 128/148/283 102/146/284
f 94/149/285 91/143/286 101/144/287 104/150/288
f 96/151/289 95/152/290 105/153/291 106/154/292
f 98/155/293 97/156/294 107/157/295 108/158/296
f 97/156/297 99/159/298 109/160/299 107/157/300
f 100/161/301 96/151/302 106/154/303 110/162/304
f 99/159/305 100/161/306 110/162/307 109/160/308
f 101/163/309 98/199/310 108/198/311 111/164/312
f 95/152/313 102/165/314 112/166/315 105/153/316
f 102/167/317 128/168/318 129/169/319 112/170/320
f 104/171/321 101/163/322 111/164/323 114/172/324
f 106/154/325 105/153/326 115/173/327 116/174/328
f 108/158/329 107/157/330 117/175/331 118/176/332
f 107/157/333 109/160/334 119/177/335 117/175/336
f 110/162/337 106/154/338 116/174/339 120/178/340
f 109/160/341 110/162/342 120/178/343 119/177/344
f 111/164/345 108/198/346 118/197/347 121/179/348
f 105/153/349 112/166/350 122/180/351 115/173/352
f 112/170/353 129/169/354 130/181/355 122/182/356
f 114/172/357 111/164/358 121/179/359 124/183/360
f 126/127/361 125/126/362 87/184/363 88/185/364
f 127/134/365 126/127/366 88/185/367 93/186/368
f 128/148/369 127/147/370 93/187/371 103/188/372
f 129/189/373 128/190/374 103/191/375 113/192/376
f 130/193/377 129/189/378 113/192/379 123/194/380
f 122/182/381 130/181/382 132/195/383 131/196/384
