# This file uses centimeters as units for non-parametric coordinates.

mtllib Building_A_Corner2.mtl
g default
v 0.000000 10.000000 -0.000000
v -5.000000 10.000000 -5.000000
v -0.058082 10.000000 -5.057748
v 0.057748 10.000000 -4.941918
v 0.000000 15.000000 -0.000000
v 0.000000 14.000000 0.000001
v 0.000000 14.400002 -0.000000
v 0.115830 14.400002 -0.000000
v 0.115831 14.400002 -5.000000
v 0.115830 15.000000 -5.000000
v 0.115830 15.000000 -0.000000
v 0.115830 14.000000 -0.000000
v 0.115830 14.000000 -5.000000
v 0.259101 14.400002 -0.000000
v 0.259101 14.400002 -5.000000
v 0.259101 15.000000 -5.000000
v 0.259101 15.000000 -0.000000
v -5.000000 15.000000 -5.000000
v -5.000000 13.999996 -5.000000
v -5.000000 14.400000 -5.000000
v 0.000000 14.400002 -5.115830
v -5.000000 14.400002 -5.115830
v -5.000000 14.999998 -5.115830
v 0.000000 15.000000 -5.115830
v 0.000000 14.000000 -5.115830
v -5.000000 14.000000 -5.115830
v 0.000000 14.400002 -5.259101
v -5.000000 14.400002 -5.259101
v -5.000000 15.000000 -5.259101
v 0.000000 15.000000 -5.259101
v 0.000000 14.000000 -5.057909
v 0.057910 14.000000 -5.000000
v 0.000001 14.000000 -4.932156
v -0.067844 14.000000 -5.000000
v -0.058082 15.000000 -5.057748
v 0.057748 15.000000 -4.941918
v 0.000000 10.797304 0.000000
v 0.046237 10.797304 -4.939972
v -0.060028 10.797304 -5.046237
v -5.000000 10.797303 -5.000000
v 0.000000 10.638959 0.000000
v 0.048523 10.638959 -4.940358
v -0.059642 10.638958 -5.048523
v -5.000000 10.638958 -5.000000
v 0.000000 10.510073 0.000000
v 0.050384 10.510073 -4.940673
v -0.059327 10.510073 -5.050384
v -5.000000 10.510072 -5.000000
v -5.000000 13.285761 -5.000000
v -0.066101 13.285763 -5.010311
v 0.010312 13.285763 -4.933899
v 0.000000 13.285763 0.000001
v -5.000000 13.351944 -5.000000
v -0.066262 13.351948 -5.009356
v 0.009357 13.351948 -4.933737
v 0.000000 13.351948 0.000001
v 0.131227 10.638959 0.002134
v 0.182322 10.638959 -5.061820
v 0.179915 10.797304 -5.061414
v 0.131227 10.797304 0.002134
v 0.068424 10.638958 -5.175422
v 0.068017 10.797304 -5.173021
v -5.002728 10.797303 -5.124460
v -5.002728 10.638958 -5.124460
v -5.002728 13.351944 -5.124460
v 0.061453 13.351948 -5.134286
v 0.061623 13.285763 -5.135290
v -5.002728 13.285761 -5.124460
v 0.142086 13.285763 -5.055036
v 0.141080 13.351948 -5.054866
v 0.131227 13.285763 0.002134
v 0.131227 13.351948 0.002134
vt 0.880000 0.000000
vt 0.880000 1.000000
vt 1.000000 1.000000
vt 1.000000 0.000000
vt 0.000000 0.000000
vt 0.000001 0.927087
vt 0.800000 0.493216
vt 0.800000 0.000000
vt 0.800000 0.000000
vt 0.800000 1.000000
vt 0.880000 1.000000
vt 0.880000 0.000000
vt 1.000000 0.000000
vt 0.880000 0.000000
vt 1.000000 0.000000
vt 0.800000 0.749975
vt 1.000000 0.690309
vt 0.880000 0.000000
vt 0.880000 1.000000
vt 1.000000 1.000000
vt 1.000000 0.000000
vt 0.800000 0.506784
vt 0.000002 0.135411
vt 0.000000 1.000000
vt 0.800000 1.000000
vt 0.800000 0.000000
vt 0.800000 1.000000
vt 0.880000 1.000000
vt 0.880000 0.000000
vt 0.880000 1.000000
vt 1.000000 1.000000
vt 1.000000 1.000000
vt 1.000000 0.377585
vt 0.800000 0.250026
vt -0.000005 0.950872
vt 0.800000 0.500000
vt 0.000000 0.000000
vt 1.000000 0.000000
vt 0.503084 1.235474
vt 0.003699 1.249995
vt 0.000000 0.000000
vt 1.000000 0.000000
vt 0.996301 1.249995
vt 0.496915 1.235474
vt 0.001968 0.010447
vt 0.998144 0.007302
vt 0.997674 0.994543
vt 0.002234 0.992196
vt 0.159461 0.000000
vt 0.159462 0.840605
vt 0.159463 0.209435
vt 0.159457 0.861001
vt 0.159461 1.000000
vt 0.127792 0.000000
vt 0.127793 0.857781
vt 0.127794 0.194734
vt 0.127787 0.878850
vt 0.127792 1.000000
vt 0.102014 0.000000
vt 0.102016 0.871761
vt 0.102017 0.182768
vt 0.102010 0.893378
vt 0.102014 1.000000
vt 0.657153 1.000000
vt 0.657153 0.440472
vt 0.657152 0.580507
vt 0.657153 0.570687
vt 0.657153 0.000000
vt 0.670390 1.000000
vt 0.670390 0.446617
vt 0.670389 0.573047
vt 0.670390 0.563508
vt 0.670390 0.000000
vt 0.127792 0.000000
vt 0.127793 0.857781
vt 0.159462 0.840605
vt 0.159461 0.000000
vt 0.127787 0.878850
vt 0.159457 0.861001
vt 0.159461 1.000000
vt 0.159463 0.209435
vt 0.127794 0.194734
vt 0.127792 1.000000
vt 0.670390 1.000000
vt 0.670390 0.446617
vt 0.657153 0.440472
vt 0.657153 1.000000
vt 0.657153 0.570687
vt 0.657152 0.580507
vt 0.670389 0.573047
vt 0.670390 0.563508
vt 0.657153 0.000000
vt 0.670390 0.000000
vn 1.000000 0.000000 0.000000
vn 1.000000 0.000000 0.000000
vn 1.000000 0.000000 0.000000
vn 1.000000 0.000000 0.000000
vn 0.999958 0.007211 0.005727
vn 0.999958 0.007211 0.005727
vn 0.999958 0.007211 0.005727
vn 0.999958 0.007211 0.005727
vn 1.000000 -0.000001 0.000000
vn 1.000000 -0.000001 0.000000
vn 1.000000 -0.000001 0.000000
vn 1.000000 -0.000001 0.000000
vn -0.000000 0.000000 1.000000
vn -0.000000 0.000000 1.000000
vn -0.000000 0.000000 1.000000
vn -0.000000 0.000000 1.000000
vn 0.000000 -1.000000 0.000000
vn 0.000000 -1.000000 -0.000000
vn 0.000000 -1.000000 -0.000000
vn 0.000000 -1.000000 0.000000
vn 0.000000 -1.000000 0.000000
vn 0.000003 0.000001 1.000000
vn 0.000003 0.000001 1.000000
vn 0.000003 0.000001 1.000000
vn 0.000003 0.000001 1.000000
vn 0.000000 -1.000000 -0.000000
vn 0.000000 -1.000000 -0.000000
vn 0.000000 -1.000000 -0.000000
vn 0.000000 -1.000000 -0.000000
vn 0.000000 1.000000 0.000000
vn 0.000000 1.000000 0.000000
vn 0.000000 1.000000 0.000000
vn 0.000000 1.000000 0.000000
vn 0.000000 0.000000 1.000000
vn 0.000000 0.000000 1.000000
vn 0.000000 0.000001 -1.000000
vn 0.000000 0.000001 -1.000000
vn 0.000000 0.000001 -1.000000
vn 0.000000 0.000001 -1.000000
vn -0.005727 0.007211 -0.999958
vn -0.005727 0.007211 -0.999958
vn -0.005727 0.007211 -0.999958
vn -0.005727 0.007211 -0.999958
vn 0.000000 -0.000001 -1.000000
vn 0.000000 -0.000001 -1.000000
vn 0.000000 -0.000001 -1.000000
vn 0.000000 -0.000001 -1.000000
vn -1.000000 0.000000 0.000000
vn -1.000000 0.000000 0.000000
vn -1.000000 0.000000 0.000000
vn -1.000000 0.000000 0.000000
vn -1.000000 0.000000 0.000000
vn -1.000000 0.000000 0.000000
vn -1.000000 0.000000 0.000000
vn -1.000000 0.000000 0.000000
vn 0.000000 -1.000000 -0.000002
vn 0.000000 -1.000000 -0.000002
vn 0.000000 -1.000000 -0.000002
vn 0.000000 -1.000000 -0.000002
vn -1.000000 0.000000 0.000000
vn -1.000000 0.000000 0.000000
vn -0.000000 1.000000 0.000011
vn -0.000000 1.000000 0.000011
vn -0.000000 1.000000 0.000011
vn -0.000000 1.000000 0.000011
vn 0.000000 1.000000 0.000001
vn 0.000000 1.000000 0.000004
vn 0.000000 1.000000 0.000004
vn 0.000000 1.000000 0.000001
vn 0.707106 0.000000 -0.707107
vn 0.707106 0.000000 -0.707107
vn 0.707106 0.000000 -0.707107
vn 0.707106 0.000000 -0.707107
vn 0.000000 -1.000000 0.000009
vn 0.000000 -1.000000 0.000009
vn 0.000000 -1.000000 0.000009
vn 0.000000 -1.000000 0.000009
vn 0.707107 -0.000001 -0.707107
vn 0.707107 -0.000001 -0.707107
vn 0.707107 -0.000001 -0.707107
vn 0.707107 -0.000001 -0.707107
vn 0.000000 -1.000000 0.000000
vn 0.000000 -1.000000 -0.000011
vn 0.000000 -1.000000 0.000000
vn 0.000000 -1.000000 -0.000012
vn 0.000000 -1.000000 -0.000012
vn 0.000000 -1.000000 -0.000012
vn 0.000000 -1.000000 -0.000012
vn 0.707056 0.011933 -0.707057
vn 0.707056 0.011933 -0.707057
vn 0.707056 0.011933 -0.707057
vn 0.707056 0.011933 -0.707057
vn -0.000000 1.000000 -0.000018
vn -0.000000 1.000000 -0.000018
vn -0.000000 1.000000 -0.000018
vn -0.000000 1.000000 -0.000018
vn 0.000000 1.000000 -0.000000
vn 0.000000 1.000000 -0.000000
vn 0.000000 1.000000 -0.000000
vn 0.000000 1.000000 -0.000000
vn 0.000000 1.000000 -0.000009
vn 0.000000 1.000000 -0.000009
vn 0.999923 0.007588 0.009852
vn 0.999923 0.007588 0.009852
vn 0.999923 0.007588 0.009852
vn 0.999923 0.007588 0.009852
vn 0.706131 0.012549 -0.707970
vn 0.706131 0.012549 -0.707970
vn 0.706131 0.012549 -0.707970
vn 0.706131 0.012549 -0.707970
vn -0.009812 0.007568 -0.999923
vn -0.009812 0.007568 -0.999923
vn -0.009812 0.007568 -0.999923
vn -0.009812 0.007568 -0.999923
vn 0.999916 0.007205 0.010753
vn 0.999916 0.007205 0.010753
vn 0.999924 0.007206 0.010009
vn 0.999924 0.007206 0.010009
vn 0.707056 0.011934 -0.707057
vn 0.707056 0.011934 -0.707057
vn 0.707060 0.011935 -0.707053
vn 0.707059 0.011935 -0.707053
vn -0.010009 0.007207 -0.999924
vn -0.010009 0.007207 -0.999924
vn -0.010753 0.007205 -0.999916
vn -0.010753 0.007205 -0.999916
vn 0.999914 0.007204 0.010941
vn 0.999914 0.007204 0.010941
vn 0.707055 0.011933 -0.707058
vn 0.707055 0.011933 -0.707058
vn -0.010941 0.007204 -0.999914
vn -0.010941 0.007204 -0.999914
vn -0.002039 0.007580 -0.999969
vn -0.002039 0.007580 -0.999969
vn -0.002039 0.007580 -0.999969
vn -0.002039 0.007580 -0.999969
vn 0.706120 0.012551 -0.707981
vn 0.706120 0.012551 -0.707981
vn 0.706120 0.012551 -0.707981
vn 0.706120 0.012551 -0.707981
vn 0.999969 0.007598 0.002048
vn 0.999969 0.007598 0.002048
vn 0.999969 0.007598 0.002048
vn 0.999969 0.007598 0.002048
vn -0.000948 0.007217 -0.999974
vn -0.000948 0.007217 -0.999974
vn -0.000948 0.007217 -0.999974
vn -0.000948 0.007217 -0.999974
vn 0.707056 0.011933 -0.707057
vn 0.707056 0.011933 -0.707057
vn 0.707056 0.011933 -0.707057
vn 0.707056 0.011933 -0.707057
vn 0.999974 0.007217 0.000948
vn 0.999974 0.007217 0.000948
vn 0.999974 0.007217 0.000948
vn 0.999974 0.007217 0.000948
vn 0.000000 -1.000000 0.000000
vn 0.000000 -1.000000 0.000000
vn 0.000000 -1.000000 0.000000
vn 0.000000 -1.000000 0.000000
vn 0.000000 1.000000 0.000000
vn 0.000000 1.000000 0.000000
vn 0.000000 1.000000 0.000000
vn 0.000000 1.000000 0.000000
vn -0.016259 -0.000000 0.999868
vn -0.016259 -0.000000 0.999868
vn -0.016259 -0.000000 0.999868
vn -0.016259 -0.000000 0.999868
vn 0.000004 -1.000000 0.000000
vn 0.000004 -1.000000 0.000000
vn 0.000004 -1.000000 0.000000
vn 0.000004 -1.000000 0.000000
vn 0.000000 1.000000 -0.000004
vn 0.000000 1.000000 -0.000004
vn 0.000000 1.000000 -0.000004
vn 0.000000 1.000000 -0.000004
vn -0.000000 1.000000 0.000012
vn -0.000000 1.000000 0.000012
vn -0.000000 1.000000 0.000012
vn -0.000000 1.000000 0.000012
vn 0.000000 -1.000000 0.000003
vn 0.000000 -1.000000 0.000003
vn 0.000000 -1.000000 0.000003
vn 0.000000 -1.000000 0.000003
vn -0.999760 0.000000 0.021909
vn -0.999760 0.000000 0.021909
vn -0.999760 0.000000 0.021909
vn -0.999760 0.000000 0.021909
vn -0.000001 1.000000 0.000008
vn -0.000001 1.000000 0.000008
vn -0.000001 1.000000 0.000008
vn -0.000001 1.000000 0.000008
vn 0.000000 -1.000000 0.000004
vn 0.000000 -1.000000 0.000004
vn 0.000000 -1.000000 0.000004
vn 0.000000 -1.000000 0.000004
vn -0.999760 0.000000 0.021909
vn -0.999760 0.000000 0.021909
vn -0.999760 0.000000 0.021909
vn -0.999760 0.000000 0.021909
vn 0.000000 -1.000000 -0.000006
vn 0.000000 -1.000000 -0.000006
vn 0.000000 -1.000000 -0.000006
vn 0.000000 -1.000000 -0.000006
vn 0.000000 1.000000 0.000006
vn 0.000000 1.000000 0.000006
vn 0.000000 1.000000 0.000006
vn 0.000000 1.000000 0.000006
vn 0.000000 -1.000000 0.000000
vn 0.000000 -1.000000 0.000000
vn 0.000000 -1.000000 0.000000
vn 0.000000 -1.000000 0.000000
vn 0.000000 1.000000 0.000000
vn 0.000000 1.000000 0.000000
vn 0.000000 1.000000 0.000000
vn 0.000000 1.000000 0.000000
vn -0.016259 -0.000000 0.999868
vn -0.016259 -0.000000 0.999868
vn -0.016259 -0.000000 0.999868
vn -0.016259 -0.000000 0.999868
s off
g Building_A_Corner2
usemtl initialShadingGroup
f 14/1/1 15/2/2 16/3/3 17/4/4
f 37/49/5 38/50/6 51/67/7 52/68/8
f 12/9/9 13/10/10 9/11/11 8/12/12
s 1
f 5/13/13 7/14/14 8/12/15 11/15/16
s 2
f 6/8/17 33/7/18 32/16/19 13/10/20 12/9/21
s off
f 7/14/22 6/8/23 12/9/24 8/12/25
f 8/12/26 9/11/27 15/2/28 14/1/29
f 10/17/30 11/15/31 17/4/32 16/3/33
s 1
f 11/15/16 8/12/15 14/1/34 17/4/35
s off
f 27/18/36 28/19/37 29/20/38 30/21/39
f 49/64/40 50/65/41 39/51/42 40/53/43
f 25/26/44 26/27/45 22/28/46 21/29/47
s 3
f 20/30/48 18/31/49 23/32/50 22/28/51
s off
f 19/25/52 20/30/53 22/28/54 26/27/55
f 21/29/56 22/28/57 28/19/58 27/18/59
s 3
f 22/28/51 23/32/50 29/20/60 28/19/61
s off
f 23/32/62 24/33/63 30/21/64 29/20/65
s 4
f 10/17/66 16/3/67 30/21/68 24/33/69
s off
f 16/3/70 15/2/71 27/18/72 30/21/73
f 15/2/74 9/11/75 21/29/76 27/18/77
f 9/11/78 13/10/79 25/26/80 21/29/81
s 2
f 13/10/82 32/16/19 31/34/83 25/26/84
f 31/34/83 34/22/85 19/25/86 26/27/87 25/26/88
s off
f 38/50/89 39/52/90 50/66/91 51/67/92
s 2
f 31/34/83 32/16/19 33/7/18 34/36/85
s off
f 23/37/93 18/38/94 35/39/95 24/40/96
f 5/41/97 11/42/98 10/43/99 36/44/100
s 4
f 10/45/66 24/46/69 35/47/101 36/48/102
s off
f 57/74/103 58/75/104 59/76/105 60/77/106
f 58/75/107 61/78/108 62/79/109 59/76/110
f 63/80/111 62/81/112 61/82/113 64/83/114
s 5
f 45/59/115 46/60/116 42/55/117 41/54/118
s 6
f 46/60/119 47/62/120 43/57/121 42/55/122
s 7
f 44/58/123 43/56/124 47/61/125 48/63/126
s 5
f 1/5/127 4/6/128 46/60/116 45/59/115
s 6
f 4/6/129 3/35/130 47/62/120 46/60/119
s 7
f 48/63/126 47/61/125 3/23/131 2/24/132
s off
f 65/84/133 66/85/134 67/86/135 68/87/136
f 69/88/137 67/89/138 66/90/139 70/91/140
f 71/92/141 69/88/142 70/91/143 72/93/144
f 34/22/145 54/70/146 53/69/147 19/25/148
f 55/72/149 54/71/150 34/36/151 33/7/152
f 56/73/153 55/72/154 33/7/155 6/8/156
f 41/54/157 42/55/158 58/75/159 57/74/160
f 38/50/161 37/49/162 60/77/163 59/76/164
f 37/49/165 41/54/166 57/74/167 60/77/168
f 42/55/169 43/57/170 61/78/171 58/75/172
f 39/52/173 38/50/174 59/76/175 62/79/176
f 40/53/177 39/51/178 62/81/179 63/80/180
f 43/56/181 44/58/182 64/83/183 61/82/184
f 44/58/185 40/53/186 63/80/187 64/83/188
f 53/69/189 54/70/190 66/85/191 65/84/192
f 50/65/193 49/64/194 68/87/195 67/86/196
f 49/64/197 53/69/198 65/84/199 68/87/200
f 51/67/201 50/66/202 67/89/203 69/88/204
f 54/71/205 55/72/206 70/91/207 66/90/208
f 52/68/209 51/67/210 69/88/211 71/92/212
f 55/72/213 56/73/214 72/93/215 70/91/216
f 56/73/217 52/68/218 71/92/219 72/93/220
