# This file uses centimeters as units for non-parametric coordinates.

mtllib Building_D_Corner.mtl
g default
v -43.343139 11.088677 -19.650703
v -38.343139 11.088677 -19.650703
v -38.343139 11.688677 -19.650703
v -43.343139 11.688677 -19.650703
v -43.343139 6.688677 -19.909812
v -38.401222 6.688677 -19.852058
v -38.410980 10.688676 -19.909812
v -43.343139 10.688677 -19.909812
v -43.343139 10.688677 -19.793983
v -38.343139 10.688677 -19.793983
v -38.343139 11.088677 -19.793983
v -43.343139 11.088677 -19.793983
v -43.343139 11.688677 -19.909812
v -43.343139 11.688677 -19.793983
v -38.343139 10.688677 -19.851905
v -38.343139 11.688677 -19.793983
v -38.084037 11.088677 -19.909812
v -38.084037 11.088677 -24.909812
v -38.084037 11.688677 -24.909812
v -38.084037 11.688677 -19.909812
v -38.343139 10.688676 -19.977653
v -38.285392 6.688677 -19.967902
v -38.343139 6.688677 -24.909812
v -38.343139 10.688673 -24.909812
v -38.227310 10.688677 -19.909812
v -38.227310 10.688677 -24.909812
v -38.227310 11.088677 -24.909812
v -38.227310 11.088677 -19.909812
v -38.343139 11.688677 -24.909812
v -38.227310 11.688675 -24.909812
v -38.227310 11.688677 -19.909812
v -38.285232 10.688677 -19.909812
v -38.285392 11.688677 -19.967887
v -38.401222 11.688677 -19.852058
vt 0.013493 0.796150
vt 0.483179 0.796150
vt 0.483179 0.853170
vt 0.013493 0.853170
vt 0.026623 0.011913
vt 0.493902 0.011913
vt 0.493902 0.390472
vt 0.022864 0.589734
vt 0.022526 0.600709
vt 0.495263 0.616520
vt 0.494356 0.654332
vt 0.013493 0.782649
vt 0.013493 0.874882
vt 0.013493 0.866565
vt 0.495813 0.611068
vt 0.491585 0.866565
vt 0.516439 0.796150
vt 0.986020 0.796150
vt 0.986020 0.853170
vt 0.516439 0.853170
vt 0.509344 0.604510
vt 0.506194 0.011913
vt 0.973377 0.011913
vt 0.973377 0.390472
vt 0.505223 0.616211
vt 0.973178 0.546857
vt 0.978654 0.584390
vt 0.507106 0.782649
vt 0.986020 0.874882
vt 0.986020 0.866565
vt 0.508033 0.866565
vt 0.504048 0.610900
vt 0.507473 0.874882
vt 0.492065 0.874882
vt 0.510388 0.653840
vt 0.492512 0.782649
vt 0.026623 0.390472
vt 0.506194 0.390472
vt 0.489857 0.605353
vt 0.971596 0.535991
vt 0.986020 0.782649
vt 0.021346 0.638631
vn 0.000000 0.000000 1.000000
vn 0.000000 0.000000 1.000000
vn 0.000000 0.000000 1.000000
vn 0.000000 0.000000 1.000000
vn -0.005849 0.007212 0.999957
vn -0.005849 0.007212 0.999957
vn -0.005849 0.007212 0.999957
vn -0.005849 0.007212 0.999957
vn 0.000000 0.000000 1.000000
vn 0.000000 0.000000 1.000000
vn 0.000000 0.000000 1.000000
vn 0.000000 0.000000 1.000000
vn -0.000000 -1.000000 0.000003
vn 0.000000 -1.000000 0.000003
vn 0.000000 -1.000000 0.000003
vn -0.000000 -1.000000 0.000003
vn -0.000000 -1.000000 0.000003
vn 0.000000 -1.000000 0.000000
vn 0.000000 -1.000000 0.000000
vn 0.000000 -1.000000 0.000000
vn 0.000000 -1.000000 0.000000
vn 0.000000 1.000000 0.000000
vn 0.000000 1.000000 0.000000
vn 0.000000 1.000000 0.000000
vn 0.000000 1.000000 0.000000
vn 1.000000 0.000000 0.000000
vn 1.000000 0.000000 0.000000
vn 1.000000 0.000000 0.000000
vn 1.000000 0.000000 0.000000
vn 0.999957 0.007211 -0.005848
vn 0.999957 0.007211 -0.005848
vn 0.999957 0.007211 -0.005848
vn 0.999957 0.007211 -0.005848
vn 1.000000 0.000000 0.000000
vn 1.000000 0.000000 0.000000
vn 1.000000 0.000000 0.000000
vn 1.000000 0.000000 0.000000
vn 0.000000 -1.000000 0.000000
vn 0.000000 -1.000000 0.000000
vn 0.000000 -1.000000 0.000000
vn 0.000000 -1.000000 0.000000
vn -0.000007 1.000000 -0.000000
vn -0.000007 1.000000 -0.000000
vn -0.000007 1.000000 -0.000000
vn -0.000007 1.000000 -0.000000
vn 0.000000 1.000000 0.000000
vn 0.000000 1.000000 0.000000
vn 0.000000 1.000000 0.000000
vn 0.000000 1.000000 0.000000
vn 0.707116 0.000000 0.707097
vn 0.707116 0.000000 0.707097
vn 0.707116 0.000000 0.707097
vn 0.707116 0.000000 0.707097
vn 0.000000 -1.000000 0.000000
vn 0.000000 -1.000000 0.000000
vn 0.000000 -1.000000 0.000000
vn 0.000000 -1.000000 0.000000
vn 0.707107 0.000000 0.707107
vn 0.707107 0.000000 0.707107
vn 0.707107 0.000000 0.707107
vn 0.707107 0.000000 0.707107
vn 0.000000 -1.000000 0.000000
vn 0.000020 -1.000000 0.000000
vn 0.000000 -1.000000 0.000000
vn 0.000020 -1.000000 0.000000
vn 0.000020 -1.000000 0.000000
vn 0.000020 -1.000000 0.000000
vn 0.000020 -1.000000 0.000000
vn 0.707086 0.011932 0.707027
vn 0.707086 0.011932 0.707027
vn 0.707086 0.011932 0.707027
vn 0.707086 0.011932 0.707027
vn 0.000011 1.000000 -0.000000
vn 0.000011 1.000000 -0.000000
vn 0.000011 1.000000 -0.000000
vn 0.000011 1.000000 -0.000000
vn 0.000000 1.000000 0.000000
vn 0.000000 1.000000 0.000000
vn 0.000000 1.000000 0.000000
vn 0.000000 1.000000 0.000000
vn 0.000000 1.000000 0.000000
vn 0.000000 1.000000 0.000000
s off
g BuildingA_70:Building_A_Corner_Single3
usemtl initialShadingGroup
f 1/1/1 2/2/2 3/3/3 4/4/4
f 5/5/5 6/6/6 7/7/7 8/37/8
f 9/9/9 10/10/10 11/11/11 12/42/12
s 1
f 8/8/13 7/39/14 15/15/15 10/10/16 9/9/17
s off
f 12/12/18 11/36/19 2/2/20 1/1/21
f 16/16/22 14/14/23 4/4/24 3/3/25
f 17/17/26 18/18/27 19/19/28 20/20/29
f 21/38/30 22/22/31 23/23/32 24/24/33
f 25/25/34 26/26/35 27/27/36 28/35/37
f 28/28/38 27/41/39 18/18/40 17/17/41
f 30/30/42 31/31/43 20/20/44 19/19/45
s 2
f 16/16/46 3/3/47 20/20/48 31/31/49
s off
f 3/3/50 2/2/51 17/17/52 20/20/53
f 2/2/54 11/36/55 28/28/56 17/17/57
f 11/11/58 10/10/59 25/25/60 28/35/61
s 1
f 10/10/62 15/15/15 32/32/63 25/25/64
f 32/32/63 21/21/65 24/40/66 26/26/67 25/25/68
s off
f 6/6/69 22/22/70 21/38/71 7/7/72
s 1
f 32/32/63 15/15/15 7/39/14 21/21/65
s off
f 30/30/73 29/29/74 33/33/75 31/31/76
f 13/13/77 14/14/78 16/16/79 34/34/80
s 2
f 16/16/46 31/31/49 33/33/81 34/34/82
