# This file uses centimeters as units for non-parametric coordinates.

mtllib Building_A_Corner_Single.mtl
g default
v -5.000000 4.400001 15.259102
v 0.000000 4.400001 15.259102
v 0.000000 5.000000 15.259102
v -5.000000 5.000000 15.259102
v -5.000000 0.000000 15.000001
v -0.058082 0.000000 15.057749
v -0.067844 3.999999 15.000002
v -5.000000 4.000000 15.000001
v -5.000000 4.000000 15.115831
v 0.000000 4.000000 15.115831
v -0.000000 4.400001 15.115831
v -5.000000 4.400001 15.115831
v -5.000000 5.000000 15.000001
v -5.000000 4.400001 15.000001
v -5.000000 5.000000 15.115831
v 0.000000 4.000000 15.057911
v 0.000000 5.000000 15.115831
v 0.259102 4.400001 15.000000
v 0.259101 4.400001 10.000000
v 0.259101 5.000000 10.000001
v 0.259101 5.000000 15.000001
v 0.000000 3.999999 14.932156
v 0.057748 0.000000 14.941916
v 0.000000 0.000000 10.000000
v 0.000000 3.999996 10.000000
v 0.115830 4.000000 15.000000
v 0.115830 4.000000 10.000000
v 0.115830 4.400001 10.000001
v 0.115831 4.400001 15.000001
v 0.000000 4.400000 10.000001
v 0.000000 5.000000 10.000001
v 0.115830 4.999998 10.000000
v 0.115830 5.000000 15.000000
v 0.057909 4.000000 15.000002
v 0.057748 5.000000 14.941918
v -0.058082 5.000000 15.057749
vt 0.880000 0.000000
vt 0.880000 1.000000
vt 1.000000 1.000000
vt 1.000000 0.000000
vt 0.000000 0.000000
vt 0.000001 0.927087
vt 0.800000 0.493216
vt 0.800000 0.000000
vt 0.800000 0.000000
vt 0.800000 1.000000
vt 0.880000 1.000000
vt 0.880000 0.000000
vt 1.000000 0.000000
vt 0.880000 0.000000
vt 1.000000 0.000000
vt 0.800000 0.749975
vt 1.000000 0.690309
vt 0.880000 0.000000
vt 0.880000 1.000000
vt 1.000000 1.000000
vt 1.000000 0.000000
vt 0.800000 0.506784
vt 0.000002 0.135411
vt 0.000000 1.000000
vt 0.800000 1.000000
vt 0.800000 0.000000
vt 0.800000 1.000000
vt 0.880000 1.000000
vt 0.880000 0.000000
vt 0.880000 1.000000
vt 1.000000 1.000000
vt 1.000000 1.000000
vt 1.000000 0.377585
vt 0.800000 0.250026
vt -0.000005 0.950872
vt 0.800000 0.500000
vt 0.000000 0.000000
vt 1.000000 0.000000
vt 0.503084 1.235474
vt 0.003699 1.249995
vt 0.000000 0.000000
vt 1.000000 0.000000
vt 0.996301 1.249995
vt 0.496915 1.235474
vt 0.001968 0.010447
vt 0.998144 0.007302
vt 0.997674 0.994543
vt 0.002234 0.992196
vn 0.000000 0.000000 1.000000
vn 0.000000 0.000000 1.000000
vn 0.000000 0.000000 1.000000
vn 0.000000 0.000000 1.000000
vn -0.005848 0.007211 0.999957
vn -0.005848 0.007211 0.999957
vn -0.005848 0.007211 0.999957
vn -0.005848 0.007211 0.999957
vn 0.000000 0.000000 1.000000
vn 0.000000 0.000000 1.000000
vn 0.000000 0.000000 1.000000
vn 0.000000 0.000000 1.000000
vn -1.000000 0.000000 0.000002
vn -1.000000 0.000000 0.000002
vn -1.000000 -0.000000 0.000001
vn -1.000000 -0.000000 0.000001
vn -0.000000 -1.000000 0.000000
vn 0.000000 -1.000000 0.000000
vn 0.000000 -1.000000 0.000000
vn -0.000000 -1.000000 0.000000
vn -0.000000 -1.000000 0.000000
vn -1.000000 0.000000 0.000006
vn -1.000000 0.000000 0.000006
vn -1.000000 0.000000 0.000006
vn -1.000000 0.000000 0.000006
vn 0.000000 -1.000000 -0.000003
vn 0.000000 -1.000000 -0.000003
vn 0.000000 -1.000000 -0.000003
vn 0.000000 -1.000000 -0.000003
vn 0.000000 1.000000 0.000000
vn 0.000000 1.000000 0.000000
vn 0.000000 1.000000 0.000000
vn 0.000000 1.000000 0.000000
vn -1.000000 -0.000001 0.000000
vn -1.000000 -0.000001 0.000000
vn 1.000000 0.000001 -0.000000
vn 1.000000 0.000001 -0.000000
vn 1.000000 0.000001 -0.000000
vn 1.000000 0.000001 -0.000000
vn 0.999957 0.007211 -0.005848
vn 0.999957 0.007211 -0.005848
vn 0.999957 0.007211 -0.005848
vn 0.999957 0.007211 -0.005848
vn 1.000000 -0.000000 -0.000000
vn 1.000000 -0.000000 -0.000000
vn 1.000000 -0.000000 -0.000000
vn 1.000000 -0.000000 -0.000000
vn -0.000007 -0.000001 -1.000000
vn -0.000007 -0.000001 -1.000000
vn -0.000003 -0.000000 -1.000000
vn -0.000003 -0.000000 -1.000000
vn 0.000000 0.000002 -1.000000
vn 0.000000 0.000002 -1.000000
vn 0.000000 0.000002 -1.000000
vn 0.000000 0.000002 -1.000000
vn 0.000000 -1.000000 -0.000000
vn 0.000000 -1.000000 -0.000000
vn 0.000000 -1.000000 -0.000000
vn 0.000000 -1.000000 -0.000000
vn 0.000000 0.000000 -1.000000
vn 0.000000 0.000000 -1.000000
vn -0.000007 1.000000 -0.000000
vn -0.000007 1.000000 -0.000000
vn -0.000007 1.000000 -0.000000
vn -0.000007 1.000000 -0.000000
vn 0.000000 1.000000 0.000001
vn 0.000000 1.000000 0.000002
vn 0.000000 1.000000 0.000002
vn 0.000000 1.000000 0.000001
vn 0.707108 -0.000000 0.707105
vn 0.707108 -0.000000 0.707105
vn 0.707108 -0.000000 0.707105
vn 0.707108 -0.000000 0.707105
vn 0.000000 -1.000000 0.000000
vn 0.000000 -1.000000 0.000000
vn 0.000000 -1.000000 0.000000
vn 0.000000 -1.000000 0.000000
vn 0.707112 -0.000001 0.707102
vn 0.707112 -0.000001 0.707102
vn 0.707112 -0.000001 0.707102
vn 0.707112 -0.000001 0.707102
vn 0.000000 -1.000000 0.000000
vn 0.000020 -1.000000 0.000000
vn 0.000000 -1.000000 0.000000
vn 0.000020 -1.000000 0.000000
vn 0.000020 -1.000000 0.000000
vn 0.000020 -1.000000 0.000000
vn 0.000020 -1.000000 0.000000
vn 0.707063 0.011933 0.707050
vn 0.707063 0.011933 0.707050
vn 0.707063 0.011933 0.707050
vn 0.707063 0.011933 0.707050
vn 0.000011 1.000000 -0.000000
vn 0.000011 1.000000 -0.000000
vn 0.000011 1.000000 -0.000000
vn 0.000011 1.000000 -0.000000
vn 0.000000 1.000000 0.000004
vn 0.000000 1.000000 0.000004
vn 0.000000 1.000000 0.000004
vn 0.000000 1.000000 0.000004
vn 0.000000 1.000000 -0.000004
vn 0.000000 1.000000 -0.000004
s off
g Building_A_Corner_Single
usemtl initialShadingGroup
f 1/1/1 2/2/2 3/3/3 4/4/4
f 5/5/5 6/6/6 7/7/7 8/8/8
f 9/9/9 10/10/10 11/11/11 12/12/12
s 1
f 13/13/13 14/14/14 12/12/15 15/15/16
s 2
f 8/8/17 7/7/18 16/16/19 10/10/20 9/9/21
s off
f 14/14/22 8/8/23 9/9/24 12/12/25
f 12/12/26 11/11/27 2/2/28 1/1/29
f 17/17/30 15/15/31 4/4/32 3/3/33
s 1
f 15/15/16 12/12/15 1/1/34 4/4/35
s off
f 18/18/36 19/19/37 20/20/38 21/21/39
f 22/22/40 23/23/41 24/24/42 25/25/43
f 26/26/44 27/27/45 28/28/46 29/29/47
s 3
f 30/30/48 31/31/49 32/32/50 28/28/51
s off
f 25/25/52 30/30/53 28/28/54 27/27/55
f 29/29/56 28/28/57 19/19/58 18/18/59
s 3
f 28/28/51 32/32/50 20/20/60 19/19/61
s off
f 32/32/62 33/33/63 21/21/64 20/20/65
s 4
f 17/17/66 3/3/67 21/21/68 33/33/69
s off
f 3/3/70 2/2/71 18/18/72 21/21/73
f 2/2/74 11/11/75 29/29/76 18/18/77
f 11/11/78 10/10/79 26/26/80 29/29/81
s 2
f 10/10/82 16/16/19 34/34/83 26/26/84
f 34/34/83 22/22/85 25/25/86 27/27/87 26/26/88
s off
f 6/6/89 23/35/90 22/36/91 7/7/92
s 2
f 34/34/83 16/16/19 7/7/18 22/36/85
s off
f 32/37/93 31/38/94 35/39/95 33/40/96
f 13/41/97 15/42/98 17/43/99 36/44/100
s 4
f 17/45/66 33/46/69 35/47/101 36/48/102
