# This file uses centimeters as units for non-parametric coordinates.

mtllib RedBrickSingleWall.mtl
g default
v 0.000000 0.000000 25.000000
v 0.000000 5.000000 25.000000
v 0.000000 0.000000 20.000000
v 0.000000 5.000000 20.000000
v 0.000000 4.000000 25.000000
v 0.000002 3.999998 20.000000
v 0.000000 4.400001 25.000000
v 0.115830 4.400001 25.000000
v 0.115830 4.400001 20.000000
v 0.115830 5.000000 20.000000
v 0.115830 5.000000 25.000000
v 0.115830 4.000000 25.000000
v 0.115830 4.000000 20.000000
v 0.259101 4.400001 25.000000
v 0.259101 4.400001 20.000000
v 0.259101 5.000000 20.000000
v 0.259101 5.000000 25.000000
vt 0.001992 0.826232
vt 0.001992 0.001649
vt 0.100942 0.001649
vt 0.100942 0.826232
vt 0.107430 0.826232
vt 0.107430 0.001649
vt 0.767096 0.001649
vt 0.767096 0.826232
vt 0.773972 0.826232
vt 0.773972 0.001649
vt 0.839939 0.001649
vt 0.839939 0.826232
vt 0.846083 0.826232
vt 0.846083 0.001649
vt 0.865186 0.001649
vt 0.865186 0.826232
vt 0.888813 0.001649
vt 0.888813 0.826232
vt 0.896756 0.826232
vt 0.896756 0.001649
vt 0.915858 0.001649
vt 0.915858 0.826232
vt 0.922092 0.826232
vt 0.922092 0.001649
vt 0.945720 0.001649
vt 0.945720 0.826232
vt 0.955278 0.166566
vt 0.955278 0.067616
vt 0.974380 0.067616
vt 0.974380 0.166566
vt 0.955278 0.001649
vt 0.974380 0.001649
vt 0.998008 0.067616
vt 0.998008 0.166566
vn 1.000000 0.000000 0.000000
vn 1.000000 0.000000 0.000000
vn 1.000000 0.000000 0.000000
vn 1.000000 0.000000 0.000000
vn 1.000000 -0.000000 0.000000
vn 1.000000 -0.000000 0.000000
vn 1.000000 -0.000000 0.000000
vn 1.000000 -0.000000 0.000000
vn 1.000000 -0.000000 0.000000
vn 1.000000 -0.000000 0.000000
vn 1.000000 -0.000000 0.000000
vn 1.000000 -0.000000 0.000000
vn 0.000000 1.000000 0.000000
vn 0.000000 1.000000 0.000000
vn 0.000000 1.000000 0.000000
vn 0.000000 1.000000 0.000000
vn 0.000000 0.000000 1.000000
vn 0.000000 0.000000 1.000000
vn 0.000000 0.000000 1.000000
vn 0.000000 0.000000 1.000000
vn 0.000008 -1.000000 0.000000
vn 0.000008 -1.000000 0.000000
vn 0.000008 -1.000000 0.000000
vn 0.000008 -1.000000 0.000000
vn 0.000000 0.000000 1.000000
vn 0.000000 0.000000 1.000000
vn 0.000000 0.000000 1.000000
vn 0.000000 0.000000 1.000000
vn 0.000000 -1.000000 0.000000
vn 0.000000 -1.000000 0.000000
vn 0.000000 -1.000000 0.000000
vn 0.000000 -1.000000 0.000000
vn 0.000000 1.000000 0.000000
vn 0.000000 1.000000 0.000000
vn 0.000000 0.000000 1.000000
vn 0.000000 0.000000 1.000000
s off
g RedBrickWall
usemtl initialShadingGroup
f 14/1/1 15/2/2 16/3/3 17/4/4
f 1/5/5 3/6/6 6/7/7 5/8/8
f 12/9/9 13/10/10 9/11/11 8/12/12
s 1
f 4/13/13 2/14/14 11/15/15 10/16/16
s 2
f 2/27/17 7/28/18 8/29/19 11/30/20
s off
f 5/19/21 6/20/22 13/21/23 12/22/24
f 7/28/25 5/31/26 12/32/27 8/29/28
f 8/23/29 9/24/30 15/25/31 14/26/32
s 1
f 10/16/16 11/15/15 17/17/33 16/18/34
s 2
f 11/30/20 8/29/19 14/33/35 17/34/36
