# This file uses centimeters as units for non-parametric coordinates.

mtllib Rooftop_Plane.mtl
g default
v 0.115830 19.400000 5.000000
v 0.115830 19.400000 0.000000
v -5.000000 19.400000 0.000000
v -5.000000 19.400000 5.000000
vt 0.000000 0.000000
vt 3.333013 0.000004
vt 3.333015 0.999996
vt 0.000000 1.000000
vn 0.000000 1.000000 0.000000
vn 0.000000 1.000000 0.000000
vn 0.000000 1.000000 0.000000
vn 0.000000 1.000000 0.000000
s off
g Rooftop_Plane
usemtl initialShadingGroup
f 1/1/1 2/2/2 3/3/3 4/4/4
